<svg width="18" height="17" viewBox="0 0 18 17" fill="none" xmlns="http://www.w3.org/2000/svg">
<g clip-path="url(#clip0)">
<path d="M13.1484 7.52687C13.5025 7.52687 13.7895 7.23983 13.7895 6.88575C13.7895 6.53167 13.5025 6.24463 13.1484 6.24463C12.7943 6.24463 12.5073 6.53167 12.5073 6.88575C12.5073 7.23983 12.7943 7.52687 13.1484 7.52687Z" fill="#B7D7EA"/>
<path d="M14.6229 1.43605H13.7895V0.794927C13.7895 0.440837 13.5025 0.153809 13.1484 0.153809C12.7943 0.153809 12.5073 0.440837 12.5073 0.794927V1.43605H9.59016V0.794927C9.59016 0.440837 9.30313 0.153809 8.94904 0.153809C8.59495 0.153809 8.30792 0.440837 8.30792 0.794927V1.43605H5.42289V0.794927C5.42289 0.440837 5.13586 0.153809 4.78177 0.153809C4.42768 0.153809 4.14065 0.440837 4.14065 0.794927V1.43605H3.33925C1.9252 1.43605 0.77478 2.58647 0.77478 4.00052V14.002C0.77478 15.416 1.9252 16.5664 3.33925 16.5664H8.24381C8.5979 16.5664 8.88493 16.2794 8.88493 15.9253C8.88493 15.5712 8.5979 15.2842 8.24381 15.2842H3.33925C2.63223 15.2842 2.05702 14.709 2.05702 14.002V4.00052C2.05702 3.29349 2.63223 2.71828 3.33925 2.71828H4.14065V3.3594C4.14065 3.71349 4.42768 4.00052 4.78177 4.00052C5.13586 4.00052 5.42289 3.71349 5.42289 3.3594V2.71828H8.30792V3.3594C8.30792 3.71349 8.59495 4.00052 8.94904 4.00052C9.30313 4.00052 9.59016 3.71349 9.59016 3.3594V2.71828H12.5073V3.3594C12.5073 3.71349 12.7943 4.00052 13.1484 4.00052C13.5025 4.00052 13.7895 3.71349 13.7895 3.3594V2.71828H14.6229C15.33 2.71828 15.9052 3.29349 15.9052 4.00052V7.6549C15.9052 8.00899 16.1922 8.29601 16.5463 8.29601C16.9004 8.29601 17.1874 8.00899 17.1874 7.6549V4.00052C17.1874 2.58647 16.037 1.43605 14.6229 1.43605Z" fill="#B7D7EA"/>
<path d="M13.3086 8.80908C11.1699 8.80908 9.42987 10.5491 9.42987 12.6878C9.42987 14.8266 11.1699 16.5666 13.3086 16.5666C15.4474 16.5666 17.1874 14.8266 17.1874 12.6878C17.1874 10.5491 15.4474 8.80908 13.3086 8.80908ZM13.3086 15.2844C11.8769 15.2844 10.7121 14.1196 10.7121 12.6878C10.7121 11.2561 11.8769 10.0913 13.3086 10.0913C14.7404 10.0913 15.9052 11.2561 15.9052 12.6878C15.9052 14.1196 14.7404 15.2844 13.3086 15.2844Z" fill="#B7D7EA"/>
<path d="M14.2383 12.0467H13.9498V11.3735C13.9498 11.0195 13.6627 10.7324 13.3087 10.7324C12.9546 10.7324 12.6675 11.0195 12.6675 11.3735V12.6878C12.6675 13.0419 12.9546 13.329 13.3087 13.329H14.2383C14.5924 13.329 14.8794 13.0419 14.8794 12.6878C14.8794 12.3337 14.5924 12.0467 14.2383 12.0467Z" fill="#B7D7EA"/>
<path d="M10.3595 7.52687C10.7136 7.52687 11.0006 7.23983 11.0006 6.88575C11.0006 6.53167 10.7136 6.24463 10.3595 6.24463C10.0054 6.24463 9.71838 6.53167 9.71838 6.88575C9.71838 7.23983 10.0054 7.52687 10.3595 7.52687Z" fill="#B7D7EA"/>
<path d="M7.57062 10.3154C7.9247 10.3154 8.21174 10.0284 8.21174 9.67432C8.21174 9.32024 7.9247 9.0332 7.57062 9.0332C7.21654 9.0332 6.9295 9.32024 6.9295 9.67432C6.9295 10.0284 7.21654 10.3154 7.57062 10.3154Z" fill="#B7D7EA"/>
<path d="M4.78174 7.52687C5.13582 7.52687 5.42286 7.23983 5.42286 6.88575C5.42286 6.53167 5.13582 6.24463 4.78174 6.24463C4.42766 6.24463 4.14062 6.53167 4.14062 6.88575C4.14062 7.23983 4.42766 7.52687 4.78174 7.52687Z" fill="#B7D7EA"/>
<path d="M4.78174 10.3154C5.13582 10.3154 5.42286 10.0284 5.42286 9.67432C5.42286 9.32024 5.13582 9.0332 4.78174 9.0332C4.42766 9.0332 4.14062 9.32024 4.14062 9.67432C4.14062 10.0284 4.42766 10.3154 4.78174 10.3154Z" fill="#B7D7EA"/>
<path d="M4.78174 13.1045C5.13582 13.1045 5.42286 12.8175 5.42286 12.4634C5.42286 12.1093 5.13582 11.8223 4.78174 11.8223C4.42766 11.8223 4.14062 12.1093 4.14062 12.4634C4.14062 12.8175 4.42766 13.1045 4.78174 13.1045Z" fill="#B7D7EA"/>
<path d="M7.57062 13.1045C7.9247 13.1045 8.21174 12.8175 8.21174 12.4634C8.21174 12.1093 7.9247 11.8223 7.57062 11.8223C7.21654 11.8223 6.9295 12.1093 6.9295 12.4634C6.9295 12.8175 7.21654 13.1045 7.57062 13.1045Z" fill="#B7D7EA"/>
<path d="M7.57062 7.52687C7.9247 7.52687 8.21174 7.23983 8.21174 6.88575C8.21174 6.53167 7.9247 6.24463 7.57062 6.24463C7.21654 6.24463 6.9295 6.53167 6.9295 6.88575C6.9295 7.23983 7.21654 7.52687 7.57062 7.52687Z" fill="#B7D7EA"/>
</g>
<defs>
<clipPath id="clip0">
<rect x="0.77478" y="0.153809" width="16.4126" height="16.4126" fill="white"/>
</clipPath>
</defs>
</svg>
