<svg width="17" height="16" viewBox="0 0 17 16" fill="none" xmlns="http://www.w3.org/2000/svg">
<g clip-path="url(#clip0)">
<path d="M10.2172 14.5729C10.077 14.6058 9.93412 14.635 9.79226 14.6596C9.42142 14.7245 9.17625 15.0602 9.24484 15.4095C9.27872 15.5814 9.38243 15.7245 9.52323 15.818C9.66834 15.9141 9.85303 15.9575 10.0412 15.9246C10.2102 15.8951 10.3804 15.8604 10.5475 15.8211C10.9137 15.7353 11.1368 15.3862 11.0454 15.0417C10.9543 14.6969 10.5836 14.4871 10.2172 14.5729Z" fill="#B7D7EA"/>
<path d="M15.271 5.95202C15.3189 6.08781 15.4103 6.19866 15.5257 6.27525C15.6969 6.38872 15.9209 6.42689 16.1346 6.36038C16.493 6.24839 16.6871 5.88471 16.5686 5.54762C16.5146 5.39395 16.4546 5.23979 16.3908 5.0897C16.2506 4.75986 15.8531 4.59928 15.5025 4.73121C15.1522 4.86308 14.9815 5.23732 15.1218 5.56726C15.1754 5.69341 15.2257 5.82291 15.271 5.95202Z" fill="#B7D7EA"/>
<path d="M12.4379 13.655C12.3174 13.7299 12.193 13.8024 12.0676 13.8704C11.7406 14.0479 11.6286 14.4413 11.8171 14.749C11.8683 14.8327 11.9365 14.9011 12.0151 14.9534C12.2259 15.093 12.5122 15.1139 12.7506 14.9846C12.8996 14.9037 13.0478 14.8177 13.1914 14.7283C13.5061 14.5326 13.5928 14.1335 13.3847 13.8371C13.1767 13.5406 12.7528 13.4591 12.4379 13.655Z" fill="#B7D7EA"/>
<path d="M16.9935 7.74834C16.9787 7.39333 16.6609 7.11701 16.2836 7.13087C15.9068 7.14487 15.613 7.44399 15.6278 7.79887C15.6335 7.93455 15.6349 8.07226 15.6316 8.20781C15.6263 8.43044 15.742 8.62889 15.9218 8.74817C16.0289 8.81916 16.1589 8.86212 16.2998 8.86514C16.677 8.87302 16.9896 8.59144 16.998 8.23625C17.0018 8.07429 17.0003 7.9102 16.9935 7.74834Z" fill="#B7D7EA"/>
<path d="M15.1595 11.9629C14.857 11.7493 14.4291 11.8073 14.2026 12.0914C14.1158 12.2003 14.0245 12.3077 13.9309 12.4112C13.6864 12.6816 13.721 13.0876 14.0082 13.3179C14.0246 13.331 14.0411 13.343 14.0583 13.3542C14.3439 13.5437 14.7407 13.5002 14.9716 13.2452C15.0833 13.1217 15.1922 12.9933 15.2959 12.8633C15.5225 12.5792 15.4611 12.1762 15.1595 11.9629Z" fill="#B7D7EA"/>
<path d="M16.1641 9.63754C15.8039 9.53126 15.4204 9.71994 15.3076 10.0589C15.2644 10.1884 15.2165 10.3185 15.1648 10.4459C15.0514 10.7264 15.1601 11.0351 15.4093 11.2005C15.455 11.2307 15.5054 11.2564 15.5601 11.2758C15.9127 11.4025 16.3075 11.236 16.4419 10.904C16.5033 10.7524 16.5602 10.5976 16.6117 10.4437C16.7245 10.1047 16.5241 9.74381 16.1641 9.63754Z" fill="#B7D7EA"/>
<path d="M7.23558 14.6657C6.62457 14.5624 6.03845 14.3866 5.48266 14.1414C5.47609 14.1381 5.4702 14.1344 5.4633 14.1315C5.33232 14.0735 5.20157 14.0113 5.07484 13.9464C5.0744 13.9459 5.0736 13.9456 5.0729 13.9453C4.84038 13.8248 4.61344 13.6914 4.39297 13.5454C1.17818 11.414 0.40521 7.21836 2.66995 4.1927C3.16241 3.53502 3.75836 2.98634 4.42276 2.55146C4.43094 2.5461 4.43913 2.54077 4.44724 2.53537C6.78847 1.01709 9.96749 0.914764 12.4535 2.47494L11.9196 3.20102C11.7711 3.40312 11.8625 3.5504 12.1223 3.52838L14.4416 3.33296C14.7018 3.31095 14.8574 3.09911 14.7874 2.86262L14.1646 0.750637C14.0949 0.51387 13.9164 0.485529 13.7678 0.687593L13.2326 1.4154C11.4082 0.26276 9.22003 -0.176758 7.04815 0.177704C6.8294 0.213336 6.61372 0.256948 6.401 0.307713C6.39935 0.307988 6.39804 0.30816 6.39672 0.308435C6.3885 0.310327 6.38017 0.312838 6.37217 0.314936C4.49932 0.767593 2.86528 1.79566 1.69929 3.26249C1.68946 3.27346 1.67933 3.28419 1.67005 3.29612C1.63128 3.34527 1.5928 3.39555 1.55512 3.44584C1.49351 3.52825 1.43277 3.61272 1.37467 3.69719C1.3674 3.70737 1.36184 3.71772 1.35549 3.72801C0.393297 5.13131 -0.0708045 6.75366 0.00878708 8.40532C0.0089698 8.41076 0.00864091 8.41623 0.00878708 8.4218C0.0164977 8.58314 0.0300919 8.74672 0.0485463 8.90775C0.049533 8.91813 0.0519814 8.92797 0.0538451 8.93836C0.0729208 9.10028 0.0968567 9.26259 0.126859 9.42486C0.431777 11.0805 1.26161 12.5703 2.50507 13.7296C2.50796 13.7323 2.51095 13.7353 2.51388 13.7381C2.5149 13.7392 2.51603 13.7397 2.51702 13.7407C2.8511 14.0508 3.21449 14.3377 3.60576 14.597C4.6297 15.2761 5.76989 15.725 6.99439 15.9318C7.36593 15.9946 7.72084 15.7618 7.78749 15.4123C7.85411 15.0626 7.60701 14.7283 7.23558 14.6657Z" fill="#B7D7EA"/>
<path d="M8.08062 2.86182C7.77501 2.86182 7.52747 3.09501 7.52747 3.38223V8.56699L12.5657 11.0183C12.6468 11.0578 12.7336 11.0764 12.8191 11.0764C13.0192 11.0764 13.2125 10.9738 13.3107 10.7949C13.4509 10.5395 13.3448 10.2257 13.0734 10.0938L8.63316 7.93325V3.38223C8.63312 3.09501 8.38587 2.86182 8.08062 2.86182Z" fill="#B7D7EA"/>
</g>
<defs>
<clipPath id="clip0">
<rect width="17" height="16" fill="white"/>
</clipPath>
</defs>
</svg>
