<svg width="18" height="18" viewBox="0 0 18 18" fill="none" xmlns="http://www.w3.org/2000/svg">
<path d="M3.80813 17.1174C3.62188 17.1174 3.43692 17.0593 3.27907 16.9452C2.98504 16.7321 2.84768 16.3658 2.92771 16.0123L4.02136 11.1948L0.312379 7.94209C0.0397431 7.70408 -0.0644084 7.32716 0.0475253 6.98228C0.159459 6.63805 0.464001 6.39434 0.824576 6.36101L5.73202 5.91548L7.67224 1.37496C7.81531 1.04136 8.14112 0.825928 8.50312 0.825928C8.86512 0.825928 9.19094 1.04136 9.334 1.37418L11.2742 5.91548L16.1809 6.36101C16.5422 6.39356 16.8468 6.63805 16.9587 6.98228C17.0706 7.32652 16.9671 7.70408 16.6945 7.94209L12.9855 11.1941L14.0792 16.0116C14.1593 16.3658 14.0219 16.7321 13.7279 16.9445C13.4347 17.157 13.0436 17.1733 12.7348 16.9877L8.50312 14.4589L4.27143 16.9891C4.12837 17.0741 3.96896 17.1174 3.80813 17.1174ZM8.50312 13.3695C8.66395 13.3695 8.82323 13.4127 8.96642 13.4977L12.9601 15.8863L11.9279 11.3393C11.8543 11.0157 11.9641 10.6778 12.2142 10.4588L15.7163 7.38748L11.0829 6.96672C10.7493 6.93624 10.4624 6.72651 10.3321 6.41911L8.50312 2.13424L6.67197 6.41976C6.54305 6.72508 6.25615 6.93481 5.92333 6.96529L1.2893 7.38605L4.79128 10.4574C5.04213 10.677 5.15185 11.0142 5.07754 11.3386L4.04614 15.8855L8.03982 13.4977C8.18288 13.4127 8.34229 13.3695 8.50312 13.3695ZM5.69453 6.00328C5.69453 6.00328 5.69453 6.00406 5.69375 6.00471L5.69453 6.00328ZM11.3103 6.00121L11.3111 6.00264C11.3111 6.00186 11.3111 6.00186 11.3103 6.00121Z" fill="#C4C4C4"/>
</svg>
