<svg width="42" height="38" viewBox="0 0 42 38" fill="none" xmlns="http://www.w3.org/2000/svg">
<path d="M31.5 21.625H28.875C27.4255 21.625 26.25 22.8021 26.25 24.2549V34.7451C26.25 36.197 27.4255 37.375 28.875 37.375H31.5C34.3998 37.375 36.75 35.0199 36.75 32.1152V26.8848C36.75 23.9801 34.3998 21.625 31.5 21.625ZM34.125 32.1152C34.125 33.5655 32.947 34.7451 31.5 34.7451H28.875V24.2549H31.5C32.947 24.2549 34.125 25.4345 34.125 26.8848V32.1152ZM13.125 21.625H10.5C7.6002 21.625 5.25 23.9801 5.25 26.8848V32.1152C5.25 35.0199 7.6002 37.375 10.5 37.375H13.125C14.5745 37.375 15.75 36.1979 15.75 34.7451V24.2549C15.75 22.8021 14.5745 21.625 13.125 21.625ZM13.125 34.7451H10.5C9.05297 34.7451 7.875 33.5655 7.875 32.1152V26.8848C7.875 25.4345 9.05297 24.2549 10.5 24.2549H13.125V34.7451ZM21 0.625C9.42047 0.625 0 10.0463 0 21.625V31.4688C0 31.8313 0.293672 32.125 0.65625 32.125H1.96875C2.33133 32.125 2.625 31.8313 2.625 31.4688V21.625C2.625 11.4925 10.8691 3.25 21 3.25C31.1309 3.25 39.375 11.4925 39.375 21.625V31.4688C39.375 31.8313 39.6687 32.125 40.0312 32.125H41.3438C41.7063 32.125 42 31.8313 42 31.4688V21.625C42 10.0463 32.5795 0.625 21 0.625Z" fill="#10406B"/>
</svg>
