<svg width="10" height="10" viewBox="0 0 10 10" fill="none" xmlns="http://www.w3.org/2000/svg">
<g clip-path="url(#clip0)">
<path d="M6.42279 4.55528L9.45692 6.4734V2.55615L6.42279 4.55528Z" fill="#357BBA"/>
<path d="M0.456909 2.55615V6.4734L3.49103 4.55528L0.456909 2.55615Z" fill="#357BBA"/>
<path d="M8.89441 1.41528H1.01941C0.738723 1.41528 0.515973 1.62453 0.473785 1.89397L4.95691 4.84766L9.44003 1.89397C9.39784 1.62453 9.17509 1.41528 8.89441 1.41528Z" fill="#357BBA"/>
<path d="M5.90754 4.89485L5.1116 5.4191C5.06435 5.45004 5.01091 5.46522 4.95691 5.46522C4.90291 5.46522 4.84948 5.45004 4.80223 5.4191L4.00629 4.89429L0.474915 7.12797C0.518227 7.39516 0.739852 7.60272 1.01941 7.60272H8.89441C9.17398 7.60272 9.3956 7.39516 9.43892 7.12797L5.90754 4.89485Z" fill="#357BBA"/>
</g>
<defs>
<clipPath id="clip0">
<rect x="0.456909" y="0.0090332" width="9" height="9" fill="white"/>
</clipPath>
</defs>
</svg>
