<svg width="15" height="17" viewBox="0 0 15 17" fill="none" xmlns="http://www.w3.org/2000/svg">
<path d="M12.9796 3.00746C11.7267 1.19406 9.74089 0.153809 7.53189 0.153809C5.32288 0.153809 3.33711 1.19406 2.08414 3.00746C0.837325 4.8117 0.549431 7.0959 1.31249 9.11399C1.51659 9.66509 1.84103 10.2005 2.27449 10.7023L7.09499 16.3644C7.20402 16.4926 7.36375 16.5664 7.53189 16.5664C7.70002 16.5664 7.85975 16.4926 7.96878 16.3644L12.7879 10.7038C13.2233 10.1992 13.5473 9.66432 13.7497 9.11764C14.5143 7.09591 14.2264 4.8117 12.9796 3.00746ZM12.6751 8.71572C12.519 9.13751 12.2642 9.55453 11.9182 9.95565C11.9172 9.95661 11.9162 9.95757 11.9155 9.95872L7.53189 15.1075L3.14561 9.95549C2.79976 9.55472 2.54494 9.13774 2.38733 8.71191C1.75627 7.04292 1.99576 5.15431 3.02816 3.66015C4.06379 2.16122 5.70543 1.30154 7.53189 1.30154C9.3583 1.30154 10.9998 2.16118 12.0354 3.66015C13.068 5.15431 13.3077 7.04292 12.6751 8.71572Z" fill="#B7D7EA"/>
<path d="M7.53188 3.55859C5.75995 3.55859 4.31821 5.00015 4.31821 6.77226C4.31821 8.54438 5.75976 9.98593 7.53188 9.98593C9.30399 9.98593 10.7455 8.54438 10.7455 6.77226C10.7455 5.00034 9.3038 3.55859 7.53188 3.55859ZM7.53188 8.83817C6.39274 8.83817 5.46594 7.91137 5.46594 6.77223C5.46594 5.63309 6.39274 4.70629 7.53188 4.70629C8.67102 4.70629 9.59782 5.63309 9.59782 6.77223C9.59782 7.91137 8.67102 8.83817 7.53188 8.83817Z" fill="#B7D7EA"/>
</svg>
