<svg width="10" height="10" viewBox="0 0 10 10" fill="none" xmlns="http://www.w3.org/2000/svg">
<g clip-path="url(#clip0)">
<path d="M9.73051 7.35185L8.61196 6.23306C8.31352 5.93461 7.7921 5.9341 7.49316 6.23306L7.30664 6.41958L9.54406 8.65686L9.73051 8.47041C10.0402 8.16069 10.0392 7.65999 9.73051 7.35185Z" fill="#357BBA"/>
<path d="M6.92341 6.78191C6.68804 6.96425 6.35227 6.95697 6.1372 6.74143L3.92557 4.52828C3.71001 4.31272 3.70275 3.97669 3.88509 3.7419L1.65283 1.50977C0.692522 2.62914 0.730069 4.31581 1.78994 5.37568L5.28979 8.87706C6.30686 9.89409 7.97283 10.029 9.15578 9.01412L6.92341 6.78191Z" fill="#357BBA"/>
<path d="M4.43411 2.054L3.31557 0.935203C3.01713 0.636763 2.49571 0.636253 2.19678 0.935203L2.01025 1.12172L4.24766 3.35901L4.43411 3.17254C4.74381 2.86285 4.74279 2.36216 4.43411 2.054Z" fill="#357BBA"/>
</g>
<defs>
<clipPath id="clip0">
<rect x="0.962402" y="0.71106" width="9" height="9" fill="white"/>
</clipPath>
</defs>
</svg>
