<svg width="12" height="12" viewBox="0 0 12 12" fill="none" xmlns="http://www.w3.org/2000/svg">
<g clip-path="url(#clip0)">
<path d="M9.32593 4.33228C8.3786 4.33228 7.60718 3.56136 7.60718 2.61353C7.60718 1.6657 8.3786 0.894775 9.32593 0.894775C10.2733 0.894775 11.0447 1.6657 11.0447 2.61353C11.0447 3.56136 10.2733 4.33228 9.32593 4.33228ZM9.32593 1.58228C8.7576 1.58228 8.29468 2.04469 8.29468 2.61353C8.29468 3.18236 8.7576 3.64478 9.32593 3.64478C9.89426 3.64478 10.3572 3.18236 10.3572 2.61353C10.3572 2.04469 9.89426 1.58228 9.32593 1.58228Z" fill="#357BBA"/>
<path d="M9.32593 11.8948C8.3786 11.8948 7.60718 11.1239 7.60718 10.176C7.60718 9.2282 8.3786 8.45728 9.32593 8.45728C10.2733 8.45728 11.0447 9.2282 11.0447 10.176C11.0447 11.1239 10.2733 11.8948 9.32593 11.8948ZM9.32593 9.14478C8.7576 9.14478 8.29468 9.60719 8.29468 10.176C8.29468 10.7449 8.7576 11.2073 9.32593 11.2073C9.89426 11.2073 10.3572 10.7449 10.3572 10.176C10.3572 9.60719 9.89426 9.14478 9.32593 9.14478Z" fill="#357BBA"/>
<path d="M2.68018 8.11353C1.73277 8.11353 0.961426 7.34261 0.961426 6.39478C0.961426 5.44695 1.73277 4.67603 2.68018 4.67603C3.62759 4.67603 4.39893 5.44695 4.39893 6.39478C4.39893 7.34261 3.62759 8.11353 2.68018 8.11353ZM2.68018 5.36353C2.11185 5.36353 1.64893 5.82594 1.64893 6.39478C1.64893 6.96361 2.11185 7.42603 2.68018 7.42603C3.2485 7.42603 3.71143 6.96361 3.71143 6.39478C3.71143 5.82594 3.2485 5.36353 2.68018 5.36353Z" fill="#357BBA"/>
<path d="M3.877 6.06014C3.75733 6.06014 3.64093 5.99778 3.57815 5.88692C3.48416 5.72193 3.54148 5.51195 3.70647 5.41804L7.95937 2.99341C8.12386 2.89858 8.33425 2.95632 8.42774 3.12181C8.52174 3.28681 8.46442 3.4967 8.29942 3.59069L4.04653 6.01524C3.9929 6.04545 3.93474 6.06014 3.877 6.06014Z" fill="#357BBA"/>
<path d="M8.12943 9.84137C8.07169 9.84137 8.01345 9.82668 7.95982 9.79605L3.70692 7.37143C3.54193 7.27752 3.48469 7.06754 3.57861 6.90255C3.6721 6.73714 3.88207 6.67982 4.04707 6.77423L8.29988 9.19877C8.46487 9.29276 8.52219 9.50266 8.42828 9.66765C8.365 9.77901 8.2486 9.84137 8.12943 9.84137Z" fill="#357BBA"/>
</g>
<defs>
<clipPath id="clip0">
<rect x="0.510254" y="0.894775" width="11" height="11" fill="white"/>
</clipPath>
</defs>
</svg>
