<svg width="10" height="10" viewBox="0 0 10 10" fill="none" xmlns="http://www.w3.org/2000/svg">
<path d="M9.7034 5.89618C10.3551 2.96743 7.7894 0.306808 4.77627 0.817558C3.14052 -0.197567 0.962524 0.949558 0.962524 2.89581C0.962524 3.34843 1.0874 3.77218 1.30452 4.13743C0.698899 7.07293 3.28565 9.69531 6.29615 9.14968C6.64715 9.33531 7.04765 9.44106 7.47327 9.44106C9.32915 9.44106 10.5175 7.51618 9.7034 5.89618ZM5.49852 7.89568C4.62027 7.89568 3.76227 7.68381 3.25452 6.95856C2.49777 5.88831 3.49565 5.35281 3.9854 5.76081C4.39415 6.10543 4.2659 6.93906 5.46627 6.93906C5.9954 6.93906 6.64865 6.71331 6.64865 6.18868C6.64865 5.13306 4.30677 5.63256 3.37565 4.48168C3.03365 4.06018 2.96915 3.31656 3.38915 2.77731C4.12115 1.83531 6.26915 1.77793 7.19277 2.48931C8.04552 3.14931 7.81527 4.02531 7.12715 4.02531C6.29952 4.02531 6.73452 2.94231 5.3984 2.94231C4.42977 2.94231 4.04877 3.63118 4.7309 3.96643C5.63877 4.41718 8.01215 4.27656 8.01215 6.06756C8.00915 7.32643 6.79452 7.89568 5.49852 7.89568Z" fill="#357BBA"/>
</svg>
