<svg width="17" height="17" viewBox="0 0 17 17" fill="none" xmlns="http://www.w3.org/2000/svg">
<g clip-path="url(#clip0)">
<path d="M766 -2324H-1154V1417H766V-2324Z" fill="white"/>
<path d="M766 -884.027H-1154V1185.75H766V-884.027Z" fill="#F2F7FF"/>
<path d="M-194 790.932C64.3787 790.932 273.836 581.475 273.836 323.096C273.836 64.7173 64.3787 -144.74 -194 -144.74C-452.379 -144.74 -661.836 64.7173 -661.836 323.096C-661.836 581.475 -452.379 790.932 -194 790.932Z" stroke="white" stroke-width="25"/>
<g filter="url(#filter0_d)">
<path d="M67 -94.7849H-454.869C-460.392 -94.7849 -464.869 -90.3078 -464.869 -84.7849V328.092C-464.869 333.615 -460.392 338.092 -454.869 338.092H67C72.5228 338.092 77 333.615 77 328.092V-84.7849C77 -90.3078 72.5228 -94.7849 67 -94.7849Z" fill="white"/>
</g>
<path d="M3.80813 16.1174C3.62188 16.1174 3.43692 16.0593 3.27907 15.9452C2.98504 15.7321 2.84768 15.3658 2.92771 15.0123L4.02136 10.1948L0.312379 6.94209C0.0397431 6.70408 -0.0644084 6.32716 0.0475253 5.98228C0.159459 5.63805 0.464001 5.39434 0.824576 5.36101L5.73202 4.91548L7.67224 0.374961C7.81531 0.0413642 8.14112 -0.174072 8.50312 -0.174072C8.86512 -0.174072 9.19094 0.0413642 9.334 0.374183L11.2742 4.91548L16.1809 5.36101C16.5422 5.39356 16.8468 5.63805 16.9587 5.98228C17.0706 6.32652 16.9671 6.70408 16.6945 6.94209L12.9855 10.1941L14.0792 15.0116C14.1593 15.3658 14.0219 15.7321 13.7279 15.9445C13.4347 16.157 13.0436 16.1733 12.7348 15.9877L8.50312 13.4589L4.27143 15.9891C4.12837 16.0741 3.96896 16.1174 3.80813 16.1174ZM8.50312 12.3695C8.66395 12.3695 8.82323 12.4127 8.96642 12.4977L12.9601 14.8863L11.9279 10.3393C11.8543 10.0157 11.9641 9.67778 12.2142 9.45884L15.7163 6.38748L11.0829 5.96672C10.7493 5.93624 10.4624 5.72651 10.3321 5.41911L8.50312 1.13424L6.67197 5.41976C6.54305 5.72508 6.25615 5.93481 5.92333 5.96529L1.2893 6.38605L4.79128 9.45742C5.04213 9.677 5.15185 10.0142 5.07754 10.3386L4.04614 14.8855L8.03982 12.4977C8.18288 12.4127 8.34229 12.3695 8.50312 12.3695ZM5.69453 5.00328C5.69453 5.00328 5.69453 5.00406 5.69375 5.00471L5.69453 5.00328ZM11.3103 5.00121L11.3111 5.00264C11.3111 5.00186 11.3111 5.00186 11.3103 5.00121Z" fill="#FED361"/>
<path d="M6.38947 5.82137C7.10807 4.27004 8.57221 1.13397 8.68 1L11.5095 5.82137L17 6.32369L12.8905 10.442L13.8337 16L8.68 13.3214L3.89684 16L4.63789 10.442L1 6.32369L6.38947 5.82137Z" fill="#FED361"/>
</g>
<path d="M3.80496 16.2915C3.61871 16.2915 3.43375 16.2334 3.2759 16.1192C2.98186 15.9061 2.84451 15.5399 2.92454 15.1864L4.01819 10.3689L0.309205 7.11616C0.0365692 6.87815 -0.0675822 6.50124 0.0443514 6.15636C0.156285 5.81212 0.460828 5.56841 0.821402 5.53508L5.72884 5.08955L7.66907 0.549033C7.81213 0.215437 8.13795 0 8.49995 0C8.86195 0 9.18776 0.215437 9.33082 0.548255L11.271 5.08955L16.1777 5.53508C16.5391 5.56763 16.8436 5.81212 16.9555 6.15636C17.0675 6.50059 16.964 6.87815 16.6913 7.11616L12.9824 10.3682L14.076 15.1856C14.1562 15.5399 14.0187 15.9061 13.7248 16.1186C13.4315 16.331 13.0405 16.3474 12.7316 16.1618L8.49995 13.633L4.26826 16.1632C4.1252 16.2482 3.96579 16.2915 3.80496 16.2915ZM8.49995 12.5436C8.66078 12.5436 8.82005 12.5868 8.96325 12.6717L12.9569 15.0603L11.9248 10.5133C11.8511 10.1897 11.9609 9.85186 12.211 9.63292L15.7131 6.56155L11.0797 6.14079C10.7461 6.11031 10.4592 5.90058 10.3289 5.59318L8.49995 1.30831L6.6688 5.59383C6.53988 5.89915 6.25297 6.10888 5.92015 6.13936L1.28613 6.56012L4.78811 9.63149C5.03895 9.85108 5.14868 10.1883 5.07436 10.5127L4.04296 15.0596L8.03665 12.6717C8.17971 12.5868 8.33911 12.5436 8.49995 12.5436ZM5.69136 5.17736C5.69136 5.17736 5.69136 5.17813 5.69058 5.17878L5.69136 5.17736ZM11.3071 5.17528L11.3079 5.17671C11.3079 5.17593 11.3079 5.17593 11.3071 5.17528Z" fill="#FED361"/>
<defs>
<filter id="filter0_d" x="-484.869" y="-110.785" width="581.869" height="472.877" filterUnits="userSpaceOnUse" color-interpolation-filters="sRGB">
<feFlood flood-opacity="0" result="BackgroundImageFix"/>
<feColorMatrix in="SourceAlpha" type="matrix" values="0 0 0 0 0 0 0 0 0 0 0 0 0 0 0 0 0 0 127 0"/>
<feOffset dy="4"/>
<feGaussianBlur stdDeviation="10"/>
<feColorMatrix type="matrix" values="0 0 0 0 0.141176 0 0 0 0 0.4 0 0 0 0 0.631373 0 0 0 0.08 0"/>
<feBlend mode="normal" in2="BackgroundImageFix" result="effect1_dropShadow"/>
<feBlend mode="normal" in="SourceGraphic" in2="effect1_dropShadow" result="shape"/>
</filter>
<clipPath id="clip0">
<rect width="9" height="16" fill="white"/>
</clipPath>
</defs>
</svg>
