<svg width="17" height="18" viewBox="0 0 17 18" fill="none" xmlns="http://www.w3.org/2000/svg">
<path d="M3.80496 17.0764C3.61871 17.0764 3.43375 17.0183 3.2759 16.9041C2.98186 16.691 2.84451 16.3248 2.92454 15.9713L4.01819 11.1538L0.309205 7.90107C0.0365692 7.66306 -0.0675822 7.28615 0.0443514 6.94127C0.156285 6.59704 0.460828 6.35332 0.821402 6.31999L5.72884 5.87446L7.66907 1.33395C7.81213 1.00035 8.13795 0.784912 8.49995 0.784912C8.86195 0.784912 9.18776 1.00035 9.33082 1.33317L11.271 5.87446L16.1777 6.31999C16.5391 6.35255 16.8436 6.59704 16.9555 6.94127C17.0675 7.2855 16.964 7.66306 16.6913 7.90107L12.9824 11.1531L14.076 15.9705C14.1562 16.3248 14.0187 16.691 13.7248 16.9035C13.4315 17.116 13.0405 17.1323 12.7316 16.9467L8.49995 14.4179L4.26826 16.9481C4.1252 17.0331 3.96579 17.0764 3.80496 17.0764ZM8.49995 13.3285C8.66078 13.3285 8.82005 13.3717 8.96325 13.4566L12.9569 15.8453L11.9248 11.2983C11.8511 10.9746 11.9609 10.6368 12.211 10.4178L15.7131 7.34646L11.0797 6.9257C10.7461 6.89522 10.4592 6.68549 10.3289 6.3781L8.49995 2.09323L6.6688 6.37875C6.53988 6.68407 6.25297 6.8938 5.92015 6.92428L1.28613 7.34503L4.78811 10.4164C5.03895 10.636 5.14868 10.9732 5.07436 11.2976L4.04296 15.8445L8.03665 13.4566C8.17971 13.3717 8.33911 13.3285 8.49995 13.3285ZM5.69136 5.96227C5.69136 5.96227 5.69136 5.96305 5.69058 5.9637L5.69136 5.96227ZM11.3071 5.96019L11.3079 5.96162C11.3079 5.96084 11.3079 5.96084 11.3071 5.96019Z" fill="#ed8a19"/>
<g clip-path="url(#clip0)">
<path d="M816 -2323H-1104V1418H816V-2323Z" fill="white"/>
<path d="M816 -883.027H-1104V1186.75H816V-883.027Z" fill="#F2F7FF"/>
<path d="M-144 791.932C114.379 791.932 323.836 582.475 323.836 324.096C323.836 65.7173 114.379 -143.74 -144 -143.74C-402.379 -143.74 -611.836 65.7173 -611.836 324.096C-611.836 582.475 -402.379 791.932 -144 791.932Z" stroke="white" stroke-width="25"/>
<g filter="url(#filter0_d)">
<path d="M117 -93.7849H-404.869C-410.392 -93.7849 -414.869 -89.3078 -414.869 -83.7849V329.092C-414.869 334.615 -410.392 339.092 -404.869 339.092H117C122.523 339.092 127 334.615 127 329.092V-83.7849C127 -89.3078 122.523 -93.7849 117 -93.7849Z" fill="white"/>
</g>
<path d="M3.80813 17.1174C3.62188 17.1174 3.43692 17.0593 3.27907 16.9452C2.98504 16.7321 2.84768 16.3658 2.92771 16.0123L4.02136 11.1948L0.312379 7.94209C0.0397431 7.70408 -0.0644084 7.32716 0.0475253 6.98228C0.159459 6.63805 0.464001 6.39434 0.824576 6.36101L5.73202 5.91548L7.67224 1.37496C7.81531 1.04136 8.14112 0.825928 8.50312 0.825928C8.86512 0.825928 9.19094 1.04136 9.334 1.37418L11.2742 5.91548L16.1809 6.36101C16.5422 6.39356 16.8468 6.63805 16.9587 6.98228C17.0706 7.32652 16.9671 7.70408 16.6945 7.94209L12.9855 11.1941L14.0792 16.0116C14.1593 16.3658 14.0219 16.7321 13.7279 16.9445C13.4347 17.157 13.0436 17.1733 12.7348 16.9877L8.50312 14.4589L4.27143 16.9891C4.12837 17.0741 3.96896 17.1174 3.80813 17.1174ZM8.50312 13.3695C8.66395 13.3695 8.82323 13.4127 8.96642 13.4977L12.9601 15.8863L11.9279 11.3393C11.8543 11.0157 11.9641 10.6778 12.2142 10.4588L15.7163 7.38748L11.0829 6.96672C10.7493 6.93624 10.4624 6.72651 10.3321 6.41911L8.50312 2.13424L6.67197 6.41976C6.54305 6.72508 6.25615 6.93481 5.92333 6.96529L1.2893 7.38605L4.79128 10.4574C5.04213 10.677 5.15185 11.0142 5.07754 11.3386L4.04614 15.8855L8.03982 13.4977C8.18288 13.4127 8.34229 13.3695 8.50312 13.3695ZM5.69453 6.00328C5.69453 6.00328 5.69453 6.00406 5.69375 6.00471L5.69453 6.00328ZM11.3103 6.00121L11.3111 6.00264C11.3111 6.00186 11.3111 6.00186 11.3103 6.00121Z" fill="#ed8a19"/>
<path d="M6.02286 6.41748C6.73297 4.87521 8.17983 1.75745 8.28634 1.62427L11.0824 6.41748L16.5081 6.91687L12.4471 11.0111L13.3791 16.5367L8.28634 13.8737L3.55966 16.5367L4.29196 11.0111L0.697021 6.91687L6.02286 6.41748Z" fill="#ed8a19"/>
</g>
<defs>
<filter id="filter0_d" x="-434.869" y="-109.785" width="581.869" height="472.877" filterUnits="userSpaceOnUse" color-interpolation-filters="sRGB">
<feFlood flood-opacity="0" result="BackgroundImageFix"/>
<feColorMatrix in="SourceAlpha" type="matrix" values="0 0 0 0 0 0 0 0 0 0 0 0 0 0 0 0 0 0 127 0"/>
<feOffset dy="4"/>
<feGaussianBlur stdDeviation="10"/>
<feColorMatrix type="matrix" values="0 0 0 0 0.141176 0 0 0 0 0.4 0 0 0 0 0.631373 0 0 0 0.08 0"/>
<feBlend mode="normal" in2="BackgroundImageFix" result="effect1_dropShadow"/>
<feBlend mode="normal" in="SourceGraphic" in2="effect1_dropShadow" result="shape"/>
</filter>
<clipPath id="clip0">
<rect y="1" width="6" height="16" fill="white"/>
</clipPath>
</defs>
</svg>
