<svg width="17" height="17" viewBox="0 0 17 17" fill="none" xmlns="http://www.w3.org/2000/svg">
<path d="M3.80496 16.7745C3.61871 16.7745 3.43375 16.7161 3.2759 16.6014C2.98186 16.3873 2.84451 16.0194 2.92454 15.6643L4.01819 10.8245L0.309205 7.55675C0.0365692 7.31765 -0.0675822 6.93899 0.0443514 6.59251C0.156285 6.24669 0.460828 6.00185 0.821402 5.96837L5.72884 5.52078L7.66907 0.959285C7.81213 0.624147 8.13795 0.407715 8.49995 0.407715C8.86195 0.407715 9.18776 0.624147 9.33082 0.958503L11.271 5.52078L16.1777 5.96837C16.5391 6.00107 16.8436 6.24669 16.9555 6.59251C17.0675 6.93834 16.964 7.31765 16.6913 7.55675L12.9824 10.8238L14.076 15.6635C14.1562 16.0194 14.0187 16.3873 13.7248 16.6008C13.4315 16.8142 13.0405 16.8306 12.7316 16.6442L8.49995 14.1037L4.26826 16.6456C4.1252 16.7309 3.96579 16.7745 3.80496 16.7745V16.7745ZM8.49995 13.0093C8.66078 13.0093 8.82005 13.0526 8.96325 13.138L12.9569 15.5376L11.9248 10.9696C11.8511 10.6445 11.9609 10.3051 12.211 10.0851L15.7131 6.99958L11.0797 6.57688C10.7461 6.54626 10.4592 6.33556 10.3289 6.02674L8.49995 1.72207L6.6688 6.02739C6.53988 6.33412 6.25297 6.54482 5.92015 6.57544L1.28613 6.99815L4.78811 10.0837C5.03895 10.3043 5.14868 10.6431 5.07436 10.969L4.04296 15.5369L8.03665 13.138C8.17971 13.0526 8.33911 13.0093 8.49995 13.0093V13.0093ZM5.69136 5.60899C5.69136 5.60899 5.69136 5.60977 5.69058 5.61043L5.69136 5.60899ZM11.3071 5.60691L11.3079 5.60834C11.3079 5.60756 11.3079 5.60756 11.3071 5.60691Z" fill="#FED361"/>
<g clip-path="url(#clip0)">
<path d="M841 -2323H-1079V1418H841V-2323Z" fill="white"/>
<path d="M841 -883.027H-1079V1186.75H841V-883.027Z" fill="#F2F7FF"/>
<path d="M-119 791.932C139.379 791.932 348.836 582.475 348.836 324.096C348.836 65.7173 139.379 -143.74 -119 -143.74C-377.379 -143.74 -586.836 65.7173 -586.836 324.096C-586.836 582.475 -377.379 791.932 -119 791.932Z" stroke="white" stroke-width="25"/>
<g filter="url(#filter0_d)">
<path d="M142 -93.7849H-379.869C-385.392 -93.7849 -389.869 -89.3078 -389.869 -83.7849V329.092C-389.869 334.615 -385.392 339.092 -379.869 339.092H142C147.523 339.092 152 334.615 152 329.092V-83.7849C152 -89.3078 147.523 -93.7849 142 -93.7849Z" fill="white"/>
</g>
<path d="M3.80813 16.7527C3.62188 16.7527 3.43692 16.6946 3.27907 16.5804C2.98504 16.3673 2.84768 16.001 2.92771 15.6476L4.02136 10.83L0.312379 7.57734C0.0397431 7.33933 -0.0644084 6.96242 0.0475253 6.61754C0.159459 6.2733 0.464001 6.02959 0.824576 5.99626L5.73202 5.55073L7.67224 1.01021C7.81531 0.676618 8.14112 0.461182 8.50312 0.461182C8.86512 0.461182 9.19094 0.676618 9.334 1.00944L11.2742 5.55073L16.1809 5.99626C16.5422 6.02881 16.8468 6.2733 16.9587 6.61754C17.0706 6.96177 16.9671 7.33933 16.6945 7.57734L12.9855 10.8294L14.0792 15.6468C14.1593 16.001 14.0219 16.3673 13.7279 16.5798C13.4347 16.7922 13.0436 16.8086 12.7348 16.623L8.50312 14.0941L4.27143 16.6244C4.12837 16.7093 3.96896 16.7527 3.80813 16.7527ZM8.50312 13.0048C8.66395 13.0048 8.82323 13.048 8.96642 13.1329L12.9601 15.5215L11.9279 10.9745C11.8543 10.6509 11.9641 10.313 12.2142 10.0941L15.7163 7.02273L11.0829 6.60197C10.7493 6.57149 10.4624 6.36176 10.3321 6.05437L8.50312 1.7695L6.67197 6.05502C6.54305 6.36034 6.25615 6.57007 5.92333 6.60055L1.2893 7.0213L4.79128 10.0927C5.04213 10.3123 5.15185 10.6495 5.07754 10.9739L4.04614 15.5207L8.03982 13.1329C8.18288 13.048 8.34229 13.0048 8.50312 13.0048ZM5.69453 5.63854C5.69453 5.63854 5.69453 5.63932 5.69375 5.63997L5.69453 5.63854ZM11.3103 5.63646L11.3111 5.63789C11.3111 5.63711 11.3111 5.63711 11.3103 5.63646Z" fill="#FED361"/>
<path d="M6.02286 6.05273C6.73297 4.51046 8.17983 1.39271 8.28634 1.25952L11.0824 6.05273L16.5081 6.55212L12.4471 10.6464L13.3791 16.1719L8.28634 13.509L3.55966 16.1719L4.29196 10.6464L0.697021 6.55212L6.02286 6.05273Z" fill="#FED361"/>
</g>
<defs>
<filter id="filter0_d" x="-409.869" y="-109.785" width="581.869" height="472.877" filterUnits="userSpaceOnUse" color-interpolation-filters="sRGB">
<feFlood flood-opacity="0" result="BackgroundImageFix"/>
<feColorMatrix in="SourceAlpha" type="matrix" values="0 0 0 0 0 0 0 0 0 0 0 0 0 0 0 0 0 0 127 0"/>
<feOffset dy="4"/>
<feGaussianBlur stdDeviation="10"/>
<feColorMatrix type="matrix" values="0 0 0 0 0.141176 0 0 0 0 0.4 0 0 0 0 0.631373 0 0 0 0.08 0"/>
<feBlend mode="normal" in2="BackgroundImageFix" result="effect1_dropShadow"/>
<feBlend mode="normal" in="SourceGraphic" in2="effect1_dropShadow" result="shape"/>
</filter>
<clipPath id="clip0">
<rect width="11" height="17" fill="white"/>
</clipPath>
</defs>
</svg>
